<?xml version="1.0" encoding="UTF-8"?>
<svg width="24px" height="26px" viewBox="0 0 24 26" version="1.1" xmlns="http://www.w3.org/2000/svg" xmlns:xlink="http://www.w3.org/1999/xlink">
    <!-- Generator: Sketch 43.2 (39069) - http://www.bohemiancoding.com/sketch -->
    <title>icon/travel/bus</title>
    <desc>Created with Sketch.</desc>
    <defs></defs>
    <g id="Symbols" stroke="none" stroke-width="1" fill="none" fill-rule="evenodd">
        <g id="Icon/White/Bus" transform="translate(-10.000000, -10.000000)">
            <g id="icon/travel/bus">
                <path d="M21.8635294,43.4729412 C33.798078,43.4729412 43.4729412,33.798078 43.4729412,21.8635294 C43.4729412,17.5905903 42.2327568,13.6073117 40.0927051,10.2540107 C36.2554774,4.24136204 29.5251388,0.254117647 21.8635294,0.254117647 C9.92898084,0.254117647 0.254117647,9.92898084 0.254117647,21.8635294 C0.254117647,33.798078 9.92898084,43.4729412 21.8635294,43.4729412 Z" id="Oval-9"></path>
                <path d="M13.2103295,31.7385711 C12.7239285,31.339887 12.3622746,30.8871987 12.1591576,30.3805031 C10.1305905,25.3200392 11,13.9441159 11,13.9441159 C11,11.973855 16.1341547,10 22,10 C27.8658453,10 32.9713809,12.0297392 32.9713809,14 C32.9713809,14 33.8659007,25.3194071 31.8368034,30.3805031 C31.6346236,30.884792 31.2753509,31.3355953 30.7923142,31.7329097 C30.948835,32.1091705 31.0500588,32.5958352 31.0500588,33.2252989 C31.0500588,36 30.1694649,36 29.0831972,36 C28.0165379,36 27.1481941,36 27.1171925,33.3728621 C24.0073205,34.1364595 19.9993762,34.1373196 16.8877699,33.3752749 C16.8562652,36 15.9881266,36 14.9217939,36 C13.8355263,36 12.9549323,36 12.9549323,33.2252989 C12.9549323,32.5989876 13.0551448,32.1140487 13.2103295,31.7385711 Z M17.2820278,29.6578261 C18.3682955,29.6578261 19.2488894,28.7704861 19.2488894,27.6758967 C19.2488894,26.5813074 18.3682955,25.6939674 17.2820278,25.6939674 C16.1957602,25.6939674 15.3151662,26.5813074 15.3151662,27.6758967 C15.3151662,28.7704861 16.1957602,29.6578261 17.2820278,29.6578261 Z M26.7229633,29.6578261 C27.809231,29.6578261 28.6898249,28.7704861 28.6898249,27.6758967 C28.6898249,26.5813074 27.809231,25.6939674 26.7229633,25.6939674 C25.6366957,25.6939674 24.7561018,26.5813074 24.7561018,27.6758967 C24.7561018,28.7704861 25.6366957,29.6578261 26.7229633,29.6578261 Z M15.0312031,15.0000405 C15.0312031,15.0000405 14,15.0000405 14,18.5675133 C14,21.9751436 15.0298642,22.1377613 15.0312031,22.1349862 C15.0325421,22.1322111 15.0312031,22.1349862 15.0312031,22.1349862 C15.0312031,22.1349862 15.5241125,22.1349862 16.132147,22.1349862 L27.1089912,22.1349862 C27.7094058,22.1349862 28.2099351,22.1349862 28.2099351,22.1349862 C28.2099351,22.1349862 28.130251,22.0491195 28.2099351,22.1349862 C28.2896193,22.2208528 29.468933,21.7552666 29.468933,18.5675133 C29.468933,15.190428 28.212463,14.996713 28.2099351,15.0000405 C28.2074072,15.003368 28.2099351,15.0000405 28.2099351,15.0000405 C28.2099351,15.0000405 27.7170257,15.0000405 27.1089912,15.0000405 L16.132147,15.0000405 C15.5317324,15.0000405 15.0312031,15.0000405 15.0312031,15.0000405 Z M16.7999542,12.0000113 C16.7999542,12.0000113 16,12.0000113 16,12.99872 C16,13.9526809 16.7989155,13.9982055 16.7999542,13.9974286 C16.8009928,13.9966517 16.7999542,13.9974286 16.7999542,13.9974286 C16.7999542,13.9974286 17.2471657,13.9974286 17.7988291,13.9974286 L26.0244594,13.9974286 C26.5840485,13.9974286 27.0233344,13.9974286 27.0233344,13.9974286 C27.0233344,13.9974286 26.9615196,13.9733904 27.0233344,13.9974286 C27.0851493,14.0214668 28,13.8911267 28,12.99872 C28,12.05331 27.0252954,11.9990798 27.0233344,12.0000113 C27.0213734,12.0009429 27.0233344,12.0000113 27.0233344,12.0000113 C27.0233344,12.0000113 26.5761229,12.0000113 26.0244594,12.0000113 L17.7988291,12.0000113 C17.23924,12.0000113 16.7999542,12.0000113 16.7999542,12.0000113 Z" id="Combined-Shape" fill="#FFFFFF"></path>
            </g>
        </g>
    </g>
</svg>