<?xml version="1.0" encoding="UTF-8"?>
<svg width="22px" height="26px" viewBox="0 0 22 26" version="1.1" xmlns="http://www.w3.org/2000/svg" xmlns:xlink="http://www.w3.org/1999/xlink">
    <!-- Generator: Sketch 43.2 (39069) - http://www.bohemiancoding.com/sketch -->
    <title>icon/travel/subway</title>
    <desc>Created with Sketch.</desc>
    <defs></defs>
    <g id="Symbols" stroke="none" stroke-width="1" fill="none" fill-rule="evenodd">
        <g id="Icon/White/Subway" transform="translate(-11.000000, -10.000000)">
            <g id="icon/travel/subway">
                <path d="M21.8635294,43.4729412 C33.798078,43.4729412 43.4729412,33.798078 43.4729412,21.8635294 C43.4729412,17.5905903 42.2327568,13.6073117 40.0927051,10.2540107 C36.2554774,4.24136204 29.5251388,0.254117647 21.8635294,0.254117647 C9.92898084,0.254117647 0.254117647,9.92898084 0.254117647,21.8635294 C0.254117647,33.798078 9.92898084,43.4729412 21.8635294,43.4729412 Z" id="Oval-9"></path>
                <path d="M12.482184,11.1926879 C14.5060894,9.72563738 29.5843629,9.56759409 31.6366244,10.9662348 C33.6888859,12.3648754 33.2039303,33.077571 31.6366244,34.7431261 C30.0693185,36.4086812 14.4101875,36.4292033 12.482184,34.7431261 C10.5541804,33.0570489 10.4582786,12.6597385 12.482184,11.1926879 Z M17.1326165,30.2802897 C17.8946438,30.2802897 18.512389,29.6540969 18.512389,28.881649 C18.512389,28.1092011 17.8946438,27.4830083 17.1326165,27.4830083 C16.3705892,27.4830083 15.7528441,28.1092011 15.7528441,28.881649 C15.7528441,29.6540969 16.3705892,30.2802897 17.1326165,30.2802897 Z M26.7910239,30.2802897 C27.5530512,30.2802897 28.1707963,29.6540969 28.1707963,28.881649 C28.1707963,28.1092011 27.5530512,27.4830083 26.7910239,27.4830083 C26.0289966,27.4830083 25.4112514,28.1092011 25.4112514,28.881649 C25.4112514,29.6540969 26.0289966,30.2802897 26.7910239,30.2802897 Z M13.8033544,15.9437084 L14.2529026,21.1863518 C14.3189374,21.9564513 15.0001674,22.587766 15.7737293,22.587766 L28.1499111,22.587766 C28.9177338,22.587766 29.600489,21.9603315 29.6620687,21.1863518 L30.0791862,15.9437084 C30.1404571,15.1736089 29.5605626,14.5422942 28.7832658,14.5422942 L15.0906056,14.5422942 C14.3101415,14.5422942 13.7369868,15.1697287 13.8033544,15.9437084 Z" id="Combined-Shape" fill="#FFFFFF"></path>
            </g>
        </g>
    </g>
</svg>