<?xml version="1.0" encoding="UTF-8"?>
<svg width="34px" height="13px" viewBox="0 0 34 13" version="1.1" xmlns="http://www.w3.org/2000/svg" xmlns:xlink="http://www.w3.org/1999/xlink">
    <!-- Generator: Sketch 43.2 (39069) - http://www.bohemiancoding.com/sketch -->
    <title>icon/travel/train</title>
    <desc>Created with Sketch.</desc>
    <defs></defs>
    <g id="Symbols" stroke="none" stroke-width="1" fill="none" fill-rule="evenodd">
        <g id="Icon/White/Train" transform="translate(-5.000000, -16.000000)">
            <g id="icon/travel/train">
                <path d="M21.8635294,43.4729412 C33.798078,43.4729412 43.4729412,33.798078 43.4729412,21.8635294 C43.4729412,17.5905903 42.2327568,13.6073117 40.0927051,10.2540107 C36.2554774,4.24136204 29.5251388,0.254117647 21.8635294,0.254117647 C9.92898084,0.254117647 0.254117647,9.92898084 0.254117647,21.8635294 C0.254117647,33.798078 9.92898084,43.4729412 21.8635294,43.4729412 Z" id="Oval-9"></path>
                <path d="M5,22.9441876 L10.3012527,22.9441876 C10.3012527,20.187909 10.1489914,18.0086869 5,18.0005757 L5,16 L28,16 L28,16.0300055 C28.2731682,16.0146817 28.5462848,16.006865 28.8185261,16.006865 C34.0652312,16.006865 42.0041087,26.8202009 37.9432737,29 L27.75,29 L5,29 L5,22.9441876 Z M28.3297987,23 C31.0912225,23 34.2346011,23 34.2346011,23 C34.2346011,20.2385763 31.0912225,18 28.3297987,18 C25.568375,18 26.0287931,20.2385763 26.0287931,23 C26.0287931,23 25.568375,23 28.3297987,23 Z M15.3297987,23 C18.0912225,23 21.2346011,23 21.2346011,23 C21.2346011,20.2385763 22.2946101,18.0558124 17.1173005,18.0558124 C11.939991,18.0558124 13.0287931,20.2385763 13.0287931,23 C13.0287931,23 12.568375,23 15.3297987,23 Z" id="Combined-Shape" fill="#FFFFFF"></path>
            </g>
        </g>
    </g>
</svg>