<?xml version="1.0" encoding="UTF-8"?>
<svg width="12px" height="25px" viewBox="0 0 12 25" version="1.1" xmlns="http://www.w3.org/2000/svg" xmlns:xlink="http://www.w3.org/1999/xlink">
    <!-- Generator: Sketch 43.2 (39069) - http://www.bohemiancoding.com/sketch -->
    <title>icon/travel/walk</title>
    <desc>Created with Sketch.</desc>
    <defs></defs>
    <g id="Symbols" stroke="none" stroke-width="1" fill="none" fill-rule="evenodd">
        <g id="Icon/White/Walking" transform="translate(-16.000000, -10.000000)">
            <g id="icon/travel/walk">
                <path d="M21.8635294,43.4729412 C33.798078,43.4729412 43.4729412,33.798078 43.4729412,21.8635294 C43.4729412,17.5905903 42.2327568,13.6073117 40.0927051,10.2540107 C36.2554774,4.24136204 29.5251388,0.254117647 21.8635294,0.254117647 C9.92898084,0.254117647 0.254117647,9.92898084 0.254117647,21.8635294 C0.254117647,33.798078 9.92898084,43.4729412 21.8635294,43.4729412 Z" id="Path"></path>
                <path d="M22.5380503,28.4648185 C22.6822425,28.4668743 22.8348561,28.4610611 22.9964091,28.446927 C23.3628863,28.4148644 23.7285073,28.274273 24.0694338,28.0736432 L24.0405301,28.1417826 C24.3674526,29.1479467 25.3170614,31.3001665 25.9781903,32.8941514 C26.0504639,33.0684035 25.053372,32.6935884 24.4685743,32.6582717 C23.8837766,32.6229549 23.6525059,33.4035182 24.0037528,33.8475238 C24.6448811,34.6579636 27.4149246,34.9811034 27.7132259,34.8841794 C28.3039873,34.6922294 26.7549166,28.0122707 26.3292678,26.3029111 C26.2683378,26.0582228 26.0391928,23.4300148 26.0391928,23.4300148 L26.0054288,23.5096121 C26.0036547,23.4877926 26.0017942,23.4657468 25.9998453,23.4434709 C25.8587332,21.8305512 25.6602689,19.8972764 25.0328172,18.7250094 C24.4053654,17.5527425 24.1621039,16.7902679 22.7799292,16.9111925 C21.0402293,17.0633965 20.2606074,17.9296515 19.9485165,19.126308 C19.3542012,19.7816118 18.650941,20.8927631 18.0324737,22.2190706 C16.9557961,24.528013 16.5438129,26.6146722 17.1122833,26.8797543 C17.6522372,27.131539 18.8825333,25.6493534 19.9272464,23.5214091 C19.9995762,24.7521688 20.0188321,25.988202 20.3438817,26.9165051 C20.3290588,27.9682355 20.3248932,30.5669593 20.6092536,31.9020622 C20.6859369,32.2620982 17.8311335,32.1477935 18.3217902,33.0572517 C18.8124468,33.9667098 22.0433297,33.9636868 22.3539297,33.9200349 C22.9442442,33.8370716 22.6482631,29.7686163 22.5380503,28.4648185 Z M21.8837269,16.0910159 C23.6731295,16.0910159 25.1237269,14.7274955 25.1237269,13.0455079 C25.1237269,11.3635203 23.6731295,10 21.8837269,10 C20.0943243,10 18.6437269,11.3635203 18.6437269,13.0455079 C18.6437269,14.7274955 20.0943243,16.0910159 21.8837269,16.0910159 Z" id="Combined-Shape" fill="#FFFFFF"></path>
            </g>
        </g>
    </g>
</svg>