<?xml version="1.0" encoding="UTF-8"?>
<svg width="589px" height="174px" viewBox="0 0 589 174" version="1.1" xmlns="http://www.w3.org/2000/svg" xmlns:xlink="http://www.w3.org/1999/xlink">
    <!-- Generator: Sketch 44 (41411) - http://www.bohemiancoding.com/sketch -->
    <title>logo-drawer</title>
    <desc>Created with Sketch.</desc>
    <defs></defs>
    <g id="Symbols" stroke="none" stroke-width="1" fill="none" fill-rule="evenodd">
        <g id="logo-drawer-copy" transform="translate(-46.000000, -42.000000)">
            <g id="logo-drawer" transform="translate(50.000000, 12.000000)">
                <g transform="translate(7.000000, 0.000000)">
                    <rect id="Rectangle-2" fill-rule="nonzero" x="0" y="0" width="576" height="208" rx="8"></rect>
                    <g id="JoinUp" transform="translate(171.000000, 81.000000)" fill="#FFFFFF" stroke="#2489B0">
                        <path d="M43.5126953,3.578125 L62.5556641,3.578125 L62.5556641,67.5625 C62.5556641,73.4446909 61.2544075,78.6391376 58.6518555,83.1459961 C56.0493034,87.6528546 52.3782789,91.1334513 47.6386719,93.5878906 C42.8990648,96.04233 37.5459283,97.2695312 31.5791016,97.2695312 C21.8036621,97.2695312 14.1865507,94.7833907 8.72753906,89.8110352 C3.26852739,84.8386796 0.5390625,77.8034309 0.5390625,68.7050781 L19.7089844,68.7050781 C19.7089844,73.2330956 20.6611233,76.5761611 22.5654297,78.734375 C24.4697361,80.8925889 27.4742633,81.9716797 31.5791016,81.9716797 C35.2184427,81.9716797 38.1171767,80.7233198 40.2753906,78.2265625 C42.4336045,75.7298052 43.5126953,72.1751533 43.5126953,67.5625 L43.5126953,3.578125 Z M74.8066406,61.0244141 C74.8066406,54.211229 76.1184765,48.1386985 78.7421875,42.8066406 C81.3658985,37.4745827 85.1427162,33.3486474 90.0727539,30.4287109 C95.0027916,27.5087745 100.726204,26.0488281 107.243164,26.0488281 C116.510789,26.0488281 124.075003,28.8840862 129.936035,34.5546875 C135.797067,40.2252888 139.066077,47.9270347 139.743164,57.6601562 L139.870117,62.3574219 C139.870117,72.8945839 136.929066,81.3474616 131.046875,87.7163086 C125.164684,94.0851555 117.27251,97.2695312 107.370117,97.2695312 C97.4677239,97.2695312 89.5649709,94.0957349 83.6616211,87.7480469 C77.7582713,81.4003589 74.8066406,72.7676327 74.8066406,61.8496094 L74.8066406,61.0244141 Z M93.1513672,62.3574219 C93.1513672,68.8743815 94.3785685,73.8572419 96.8330078,77.3061523 C99.2874472,80.7550628 102.799782,82.4794922 107.370117,82.4794922 C111.813499,82.4794922 115.283516,80.7762215 117.780273,77.3696289 C120.277031,73.9630364 121.525391,68.5146859 121.525391,61.0244141 C121.525391,54.6344082 120.277031,49.6832858 117.780273,46.1708984 C115.283516,42.6585111 111.771181,40.9023438 107.243164,40.9023438 C102.757465,40.9023438 99.2874472,42.6479318 96.8330078,46.1391602 C94.3785685,49.6303885 93.1513672,55.0364217 93.1513672,62.3574219 Z M170.529297,96 L152.121094,96 L152.121094,27.3183594 L170.529297,27.3183594 L170.529297,96 Z M151.041992,9.54492188 C151.041992,6.79425708 151.962393,4.53028232 153.803223,2.75292969 C155.644052,0.975577051 158.151351,0.0869140625 161.325195,0.0869140625 C164.456721,0.0869140625 166.953441,0.975577051 168.81543,2.75292969 C170.677418,4.53028232 171.608398,6.79425708 171.608398,9.54492188 C171.608398,12.3379046 170.666839,14.623038 168.783691,16.4003906 C166.900544,18.1777433 164.414403,19.0664062 161.325195,19.0664062 C158.235987,19.0664062 155.749847,18.1777433 153.866699,16.4003906 C151.983552,14.623038 151.041992,12.3379046 151.041992,9.54492188 Z M202.521484,27.3183594 L203.092773,35.2529297 C208.001652,29.1168313 214.58199,26.0488281 222.833984,26.0488281 C230.112667,26.0488281 235.529279,28.185851 239.083984,32.4599609 C242.63869,36.7340708 244.458333,43.1239809 244.542969,51.6298828 L244.542969,96 L226.198242,96 L226.198242,52.0742188 C226.198242,48.1809701 225.351896,45.3562913 223.65918,43.6000977 C221.966463,41.843904 219.152363,40.9658203 215.216797,40.9658203 C210.054011,40.9658203 206.181979,43.1663191 203.600586,47.5673828 L203.600586,96 L185.255859,96 L185.255859,27.3183594 L202.521484,27.3183594 Z M329.601562,3.578125 L329.601562,64.4521484 C329.601562,74.5661313 326.438345,82.5640982 320.111816,88.4462891 C313.785287,94.3284799 305.141982,97.2695312 294.181641,97.2695312 C283.390571,97.2695312 274.821321,94.4131145 268.473633,88.7001953 C262.125945,82.9872761 258.888673,75.1374197 258.761719,65.1503906 L258.761719,3.578125 L277.804688,3.578125 L277.804688,64.5791016 C277.804688,70.6305641 279.254055,75.0421411 282.152832,77.8139648 C285.05161,80.5857886 289.061172,81.9716797 294.181641,81.9716797 C304.888074,81.9716797 310.325846,76.3434808 310.495117,65.0869141 L310.495117,3.578125 L329.601562,3.578125 Z M405.836914,62.2939453 C405.836914,72.8734253 403.435408,81.3474616 398.632324,87.7163086 C393.82924,94.0851555 387.344116,97.2695312 379.176758,97.2695312 C372.236619,97.2695312 366.629579,94.857446 362.355469,90.0332031 L362.355469,122.40625 L344.010742,122.40625 L344.010742,27.3183594 L361.022461,27.3183594 L361.657227,34.046875 C366.100608,28.7148171 371.898076,26.0488281 379.049805,26.0488281 C387.513389,26.0488281 394.093727,29.1803072 398.791016,35.4433594 C403.488305,41.7064115 405.836914,50.3391377 405.836914,61.3417969 L405.836914,62.2939453 Z M387.492188,60.9609375 C387.492188,54.5709316 386.3602,49.6409679 384.096191,46.1708984 C381.832183,42.700829 378.542014,40.9658203 374.225586,40.9658203 C368.470349,40.9658203 364.513683,43.1663191 362.355469,47.5673828 L362.355469,75.6875 C364.598319,80.2155174 368.597302,82.4794922 374.352539,82.4794922 C383.112348,82.4794922 387.492188,75.3067124 387.492188,60.9609375 Z"></path>
                    </g>
                </g>
                <g id="logo" transform="translate(0.000000, 30.000000)">
                    <g id="Mask" opacity="0.823596014" transform="translate(0.000000, 52.577320)">
                        <g id="path-1-link" transform="translate(4.626168, 2.319588)" fill="#D0D9DC">
                            <path d="M29.0755186,8.83883853 C29.0755186,8.83883853 42.8526024,-0.337747191 60.4359719,0.116563918 C80.4975962,0.634907088 104.444793,12.8900119 124.260607,15.9322665 C141.607209,18.5954313 156.246181,12.1246164 156.246181,12.1246164 L134.478977,87.059659 C134.478977,87.059659 119.703353,94.3836077 102.349831,91.9028165 C84.9963081,89.4220253 49.3715309,76.1871139 37.9358422,75.8055959 C18.0203386,75.1411724 0,82.5731582 0,82.5731582 C0,82.5731582 29.0755186,8.83883853 29.0755186,8.83883853 Z" id="path-1"></path>
                        </g>
                        <path d="M32.4218994,9.22622335 L31.8174926,9.6288041 L31.5506742,10.305445 C31.3235217,10.8814944 31.3235217,10.8814944 30.3013354,13.4737165 C28.9384205,16.9300127 28.9384205,16.9300127 27.0076244,21.8264324 C22.4645746,33.3474201 22.4645746,33.3474201 17.0129148,47.1726046 C11.5612551,60.9977899 11.5612551,60.9977899 7.01820537,72.5187773 C5.08740922,77.4151972 5.08740922,77.4151972 3.72449429,80.8714933 C2.70230809,83.4637152 2.70230809,83.4637152 2.4751556,84.0397647 L0.47462462,89.1130291 L5.50596185,87.0379941 C5.61611413,86.9925649 5.84797067,86.9004534 6.19455881,86.7683057 C6.78322363,86.5438593 7.472793,86.2926139 8.25627591,86.0212113 C10.5059843,85.2419003 13.0484075,84.461168 15.8273083,83.7319832 C24.6199111,81.4248008 33.7030145,80.1504997 42.4851,80.4434884 C47.3108661,80.6044863 53.6774692,82.2748786 75.2509134,88.5953521 C75.9452368,88.7987714 76.5662655,88.9804786 77.1602732,89.1539675 C91.8960052,93.4577606 100.118006,95.5850513 106.649557,96.5187758 C115.529853,97.7882675 124.372149,96.7610327 132.619391,94.2789843 C134.638337,93.6713729 136.464665,93.0192595 138.069521,92.3648961 C139.04694,91.9663639 139.743513,91.6503015 140.130102,91.4586781 L141.041572,91.0068827 L141.325926,90.0279735 L163.09313,15.0929313 L164.481316,10.3140135 L159.939385,12.3216671 C159.883222,12.3464929 159.752173,12.4019716 159.549621,12.483769 C159.198523,12.6255541 158.782587,12.7850428 158.305207,12.9579096 C156.926379,13.4572057 155.341746,13.9585234 153.578617,14.4274382 C145.874537,16.4763847 137.556724,17.236308 129.236821,15.9589815 C122.187287,14.8766906 116.501341,13.2492329 101.739923,8.46759611 C99.5516305,7.75874691 98.1868307,7.31920322 96.7561681,6.86453768 C82.7670641,2.41879144 73.804083,0.34166451 65.1217172,0.117333479 C56.9234684,-0.0944891753 48.9480015,1.63284588 41.5179568,4.63790807 C39.067773,5.62887851 36.8528407,6.69168665 34.9077325,7.75746642 C33.7257544,8.40510557 32.8854302,8.91747649 32.4218994,9.22622335 L32.4218994,9.22622335 Z" id="Shape" stroke="#EE3C2E" stroke-width="4.62"></path>
                    </g>
                    <g id="Pin/Color/black" transform="translate(72.152804, 0.000000)" fill-rule="nonzero">
                        <g id="pin/user-black">
                            <path d="M20.7305588,64.9851121 L31.6121495,82.7319588 L42.4937402,64.9851121 C54.591685,60.2832289 63.2242991,47.9661587 63.2242991,33.5116795 C63.2242991,15.00369 49.0710576,0 31.6121495,0 C14.1532415,0 0,15.00369 0,33.5116795 C0,47.9661587 8.63261403,60.2832289 20.7305588,64.9851121 Z" id="Pin" fill="#2EB10C"></path>
                            <ellipse id="Oval-6" fill-opacity="0.667798913" fill="#C7C2C2" cx="31.6121495" cy="33.5116795" rx="29.6363902" ry="31.4171995"></ellipse>
                        </g>
                    </g>
                    <path d="M45.9918224,130.374114 L71.7099485,59.7944844" id="Line" stroke="#000000" stroke-width="1.155" opacity="0.099999994" stroke-linecap="square"></path>
                    <path d="M93.6103745,140.090671 L117.210058,69.7550432" id="Line" stroke="#000000" stroke-width="1.155" opacity="0.099999994" stroke-linecap="square"></path>
                    <g id="Path-2" transform="translate(29.299065, 74.226804)">
                        <g id="path-2-link" fill-rule="nonzero" fill="#000000">
                            <path d="M0.584745736,0.0689207474 C6.87359452,1.93902479 6.22514753,17.4454747 6.22514753,17.4454747" id="path-2"></path>
                        </g>
                        <g id="path-2-link" stroke="#FBCE16" stroke-width="4.235">
                            <path d="M0.584745736,0.0689207474 C6.87359452,1.93902479 6.22514753,17.4454747 6.22514753,17.4454747" id="path-2"></path>
                        </g>
                    </g>
                    <path d="M40.9655797,99.1971216 C40.9655797,99.1971216 41.7555998,101.112471 45.775267,103.62273 C49.7949343,106.132989 62.7010443,101.059983 62.7010443,101.059983" id="Path-6" stroke="#FBCE16" stroke-width="4.235"></path>
                    <path d="M72.1947614,101.474598 C72.1947614,101.474598 78.8324788,95.0218995 82.2990901,93.367909 C85.7657008,91.7139186 93.9302262,91.1041678 93.9302262,91.1041678" id="Path-7" stroke="#FBCE16" stroke-width="4.235"></path>
                </g>
            </g>
        </g>
    </g>
</svg>