<?xml version="1.0" encoding="UTF-8"?>
<svg width="582px" height="175px" viewBox="0 0 582 175" version="1.1" xmlns="http://www.w3.org/2000/svg" xmlns:xlink="http://www.w3.org/1999/xlink">
    <!-- Generator: Sketch 44 (41411) - http://www.bohemiancoding.com/sketch -->
    <title>logo-drawer</title>
    <desc>Created with Sketch.</desc>
    <defs></defs>
    <g id="Symbols" stroke="none" stroke-width="1" fill="none" fill-rule="evenodd">
        <g id="logo-drawer" transform="translate(-46.000000, -42.000000)">
            <g transform="translate(50.000000, 12.000000)">
                <g transform="translate(7.000000, 0.000000)">
                    <rect id="Rectangle-2" fill-rule="nonzero" x="0" y="0" width="576" height="208" rx="8"></rect>
                    <g id="JoinUp" transform="translate(169.000000, 56.000000)" stroke="#2489B0" font-size="130" font-family="Roboto-Regular, Roboto" fill="#FFFFFF" font-weight="normal">
                        <text>
                            <tspan x="0" y="121">JoinUp</tspan>
                        </text>
                    </g>
                </g>
                <g id="logo" transform="translate(0.000000, 30.000000)">
                    <g id="Mask" opacity="0.823596014" transform="translate(0.000000, 52.577320)">
                        <g id="path-1-link" transform="translate(4.626168, 2.319588)" fill="#D0D9DC">
                            <path d="M29.0755186,8.83883853 C29.0755186,8.83883853 42.8526024,-0.337747191 60.4359719,0.116563918 C80.4975962,0.634907088 104.444793,12.8900119 124.260607,15.9322665 C141.607209,18.5954313 156.246181,12.1246164 156.246181,12.1246164 L134.478977,87.059659 C134.478977,87.059659 119.703353,94.3836077 102.349831,91.9028165 C84.9963081,89.4220253 49.3715309,76.1871139 37.9358422,75.8055959 C18.0203386,75.1411724 0,82.5731582 0,82.5731582 C0,82.5731582 29.0755186,8.83883853 29.0755186,8.83883853 Z" id="path-1"></path>
                        </g>
                        <path d="M32.4218994,9.22622335 L31.8174926,9.6288041 L31.5506742,10.305445 C31.3235217,10.8814944 31.3235217,10.8814944 30.3013354,13.4737165 C28.9384205,16.9300127 28.9384205,16.9300127 27.0076244,21.8264324 C22.4645746,33.3474201 22.4645746,33.3474201 17.0129148,47.1726046 C11.5612551,60.9977899 11.5612551,60.9977899 7.01820537,72.5187773 C5.08740922,77.4151972 5.08740922,77.4151972 3.72449429,80.8714933 C2.70230809,83.4637152 2.70230809,83.4637152 2.4751556,84.0397647 L0.47462462,89.1130291 L5.50596185,87.0379941 C5.61611413,86.9925649 5.84797067,86.9004534 6.19455881,86.7683057 C6.78322363,86.5438593 7.472793,86.2926139 8.25627591,86.0212113 C10.5059843,85.2419003 13.0484075,84.461168 15.8273083,83.7319832 C24.6199111,81.4248008 33.7030145,80.1504997 42.4851,80.4434884 C47.3108661,80.6044863 53.6774692,82.2748786 75.2509134,88.5953521 C75.9452368,88.7987714 76.5662655,88.9804786 77.1602732,89.1539675 C91.8960052,93.4577606 100.118006,95.5850513 106.649557,96.5187758 C115.529853,97.7882675 124.372149,96.7610327 132.619391,94.2789843 C134.638337,93.6713729 136.464665,93.0192595 138.069521,92.3648961 C139.04694,91.9663639 139.743513,91.6503015 140.130102,91.4586781 L141.041572,91.0068827 L141.325926,90.0279735 L163.09313,15.0929313 L164.481316,10.3140135 L159.939385,12.3216671 C159.883222,12.3464929 159.752173,12.4019716 159.549621,12.483769 C159.198523,12.6255541 158.782587,12.7850428 158.305207,12.9579096 C156.926379,13.4572057 155.341746,13.9585234 153.578617,14.4274382 C145.874537,16.4763847 137.556724,17.236308 129.236821,15.9589815 C122.187287,14.8766906 116.501341,13.2492329 101.739923,8.46759611 C99.5516305,7.75874691 98.1868307,7.31920322 96.7561681,6.86453768 C82.7670641,2.41879144 73.804083,0.34166451 65.1217172,0.117333479 C56.9234684,-0.0944891753 48.9480015,1.63284588 41.5179568,4.63790807 C39.067773,5.62887851 36.8528407,6.69168665 34.9077325,7.75746642 C33.7257544,8.40510557 32.8854302,8.91747649 32.4218994,9.22622335 L32.4218994,9.22622335 Z" id="Shape" stroke="#EE3C2E" stroke-width="4.62"></path>
                    </g>
                    <g id="Pin/Color/black" transform="translate(72.152804, 0.000000)" fill-rule="nonzero">
                        <g id="pin/user-black">
                            <path d="M20.7305588,64.9851121 L31.6121495,82.7319588 L42.4937402,64.9851121 C54.591685,60.2832289 63.2242991,47.9661587 63.2242991,33.5116795 C63.2242991,15.00369 49.0710576,0 31.6121495,0 C14.1532415,0 0,15.00369 0,33.5116795 C0,47.9661587 8.63261403,60.2832289 20.7305588,64.9851121 Z" id="Pin" fill="#2EB10C"></path>
                            <ellipse id="Oval-6" fill-opacity="0.667798913" fill="#C7C2C2" cx="31.6121495" cy="33.5116795" rx="29.6363902" ry="31.4171995"></ellipse>
                        </g>
                    </g>
                    <path d="M45.9918224,130.374114 L71.7099485,59.7944844" id="Line" stroke="#000000" stroke-width="1.155" opacity="0.099999994" stroke-linecap="square"></path>
                    <path d="M93.6103745,140.090671 L117.210058,69.7550432" id="Line" stroke="#000000" stroke-width="1.155" opacity="0.099999994" stroke-linecap="square"></path>
                    <g id="Path-2" transform="translate(29.299065, 74.226804)">
                        <g id="path-2-link" fill-rule="nonzero" fill="#000000">
                            <path d="M0.584745736,0.0689207474 C6.87359452,1.93902479 6.22514753,17.4454747 6.22514753,17.4454747" id="path-2"></path>
                        </g>
                        <g id="path-2-link" stroke="#FBCE16" stroke-width="4.235">
                            <path d="M0.584745736,0.0689207474 C6.87359452,1.93902479 6.22514753,17.4454747 6.22514753,17.4454747" id="path-2"></path>
                        </g>
                    </g>
                    <path d="M40.9655797,99.1971216 C40.9655797,99.1971216 41.7555998,101.112471 45.775267,103.62273 C49.7949343,106.132989 62.7010443,101.059983 62.7010443,101.059983" id="Path-6" stroke="#FBCE16" stroke-width="4.235"></path>
                    <path d="M72.1947614,101.474598 C72.1947614,101.474598 78.8324788,95.0218995 82.2990901,93.367909 C85.7657008,91.7139186 93.9302262,91.1041678 93.9302262,91.1041678" id="Path-7" stroke="#FBCE16" stroke-width="4.235"></path>
                </g>
            </g>
        </g>
    </g>
</svg>