<?xml version="1.0" encoding="UTF-8"?>
<svg width="393px" height="335px" viewBox="0 0 393 335" version="1.1" xmlns="http://www.w3.org/2000/svg" xmlns:xlink="http://www.w3.org/1999/xlink">
    <!-- Generator: Sketch 43.2 (39069) - http://www.bohemiancoding.com/sketch -->
    <title>logo</title>
    <desc>Created with Sketch.</desc>
    <defs>
        <path d="M65.017356,138.105239 C65.017356,138.105239 95.825046,118.221035 135.14418,119.205455 C180.005074,120.328622 233.55471,146.883488 277.865935,153.475571 C316.655619,159.246226 349.390625,145.224998 349.390625,145.224998 L300.71579,307.597334 C300.71579,307.597334 267.675209,323.467168 228.870049,318.091688 C190.064889,312.716207 110.402378,284.038256 84.8304099,283.211566 C40.2962639,281.771867 0,297.8758 0,297.8758 C0,297.8758 65.017356,138.105239 65.017356,138.105239 Z" id="path-1"></path>
        <path d="M56.4799957,160.987037 C70.5428342,165.039255 69.0928063,198.639269 69.0928063,198.639269" id="path-2"></path>
        <filter x="-41.5%" y="-13.9%" width="183.0%" height="127.9%" filterUnits="objectBoundingBox" id="filter-3">
            <feGaussianBlur stdDeviation="1.5" in="SourceAlpha" result="shadowBlurInner1"></feGaussianBlur>
            <feOffset dx="0" dy="1" in="shadowBlurInner1" result="shadowOffsetInner1"></feOffset>
            <feComposite in="shadowOffsetInner1" in2="SourceAlpha" operator="arithmetic" k2="-1" k3="1" result="shadowInnerInner1"></feComposite>
            <feColorMatrix values="0 0 0 0 0   0 0 0 0 0   0 0 0 0 0  0 0 0 0.5 0" type="matrix" in="shadowInnerInner1"></feColorMatrix>
        </filter>
    </defs>
    <g id="Page-2" stroke="none" stroke-width="1" fill="none" fill-rule="evenodd">
        <g id="logo" transform="translate(23.000000, 2.000000)">
            <g id="Mask" opacity="0.823596014">
                <use fill="#D0D9DC" fill-rule="evenodd" xlink:href="#path-1"></use>
                <path stroke="#EE3C2E" stroke-width="13" d="M61.4924956,132.643979 L59.7696699,133.755942 L58.9967771,135.655212 C58.488829,136.90342 58.488829,136.90342 56.2030626,142.520354 C53.155374,150.009599 53.155374,150.009599 48.8378152,160.619363 C38.6788534,185.583513 38.6788534,185.583513 26.4880991,215.540493 C14.2973449,245.497473 14.2973449,245.497473 4.13838301,270.461623 C-0.179175786,281.071387 -0.179175786,281.071387 -3.22686435,288.560632 C-5.51263077,294.177566 -5.51263077,294.177566 -6.02057886,295.425773 L-11.7822744,309.58429 L2.41215751,303.911651 C2.45888833,303.892975 2.57554237,303.8472 2.76016803,303.776126 C3.08386045,303.651515 3.47165921,303.50519 3.92161,303.33895 C5.22657888,302.856814 6.75696553,302.3165 8.49709704,301.732393 C13.4999383,300.053099 19.1562754,298.369981 25.3398931,296.797692 C44.9008842,291.82398 65.1053147,289.07729 84.6203878,289.708172 C95.2611232,290.052166 109.540818,293.682571 157.603196,307.327165 C159.156107,307.768026 160.545133,308.161844 161.873771,308.537864 C194.882542,317.879744 213.297333,322.496547 227.978154,324.530206 C248.018853,327.306342 267.953439,325.062267 286.545623,319.640297 C291.097699,318.312792 295.217279,316.887439 298.840259,315.455996 C301.054437,314.581171 302.639318,313.884341 303.530034,313.456517 L306.11773,312.213613 L306.94205,309.463798 L355.616885,147.091462 L359.608065,133.777452 L346.831393,139.250023 C346.717741,139.298702 346.436845,139.413932 345.996295,139.586326 C345.224629,139.888292 344.308218,140.228793 343.254686,140.598469 C340.20325,141.669192 336.692733,142.745362 332.784522,143.752556 C315.700352,148.155356 297.254163,149.78838 278.822399,147.046327 C263.144226,144.71392 250.461554,141.196348 217.518095,130.855815 C212.622785,129.319239 209.569159,128.36628 206.36735,127.380284 C174.986669,117.716607 154.86055,113.19705 135.306867,112.707491 C117.17465,112.253521 99.5183543,115.87333 83.0046652,122.218699 C77.2342036,124.435993 72.0089381,126.838548 67.4112602,129.265333 C65.7871956,130.122561 64.352417,130.925131 63.1173822,131.653079 C62.350889,132.104861 61.8057442,132.441799 61.4924956,132.643979 L61.4924956,132.643979 Z"></path>
            </g>
            <g id="Pin/Color/black" transform="translate(151.000000, 0.000000)">
                <g id="pin/user-black">
                    <path d="M46.2323638,141.388169 L70.5,180 L94.7676362,141.388169 C121.747931,131.158278 141,104.360016 141,72.9113924 C141,32.6435423 109.436075,0 70.5,0 C31.5639251,0 0,32.6435423 0,72.9113924 C0,104.360016 19.2520691,131.158278 46.2323638,141.388169 Z" id="Pin" fill="#2EB10C"></path>
                    <ellipse id="Oval-6" fill-opacity="0.667798913" fill="#C7C2C2" cx="70.5" cy="72.9113924" rx="66.09375" ry="68.3544304"></ellipse>
                </g>
            </g>
            <path d="M92.5,282.5 L150.009707,129.565152" id="Line" stroke="#000000" stroke-width="1.5" opacity="0.099999994" stroke-linecap="square"></path>
            <path d="M198.982447,303.554235 L251.754989,151.1481" id="Line" stroke="#000000" stroke-width="1.5" opacity="0.099999994" stroke-linecap="square"></path>
            <g id="Path-2">
                <use fill="black" fill-opacity="1" filter="url(#filter-3)" xlink:href="#path-2"></use>
                <use stroke="#FBCE16" stroke-width="6.5" xlink:href="#path-2"></use>
            </g>
            <path d="M81.2605439,214.944409 C81.2605439,214.944409 83.027151,219.094666 92.0157486,224.533999 C101.004346,229.973332 129.864404,218.980934 129.864404,218.980934" id="Path-6" stroke="#FBCE16" stroke-width="6.5"></path>
            <path d="M151.093824,219.879338 C151.093824,219.879338 165.936786,205.897365 173.688665,202.313431 C181.440544,198.729496 199.697684,197.408263 199.697684,197.408263" id="Path-7" stroke="#FBCE16" stroke-width="6.5"></path>
        </g>
    </g>
</svg>