<?xml version="1.0" encoding="UTF-8"?>
<svg width="17px" height="15px" viewBox="0 0 17 15" version="1.1" xmlns="http://www.w3.org/2000/svg" xmlns:xlink="http://www.w3.org/1999/xlink">
    <!-- Generator: Sketch 44 (41411) - http://www.bohemiancoding.com/sketch -->
    <title>button/back</title>
    <desc>Created with Sketch.</desc>
    <defs></defs>
    <g id="Symbols" stroke="none" stroke-width="1" fill="none" fill-rule="evenodd">
        <g id="Button/White/Back" transform="translate(-2.000000, -3.000000)" fill="#FFFFFF">
            <g id="button/back" transform="translate(2.000000, 3.000000)">
                <path d="M0.0429651214,7.75857536 C0.0149089016,7.64699461 0,7.52994197 0,7.40912942 C0,7.12215874 0.0866151023,6.85522369 0.234280276,6.63256806 C0.291574312,6.44349639 0.389684091,6.26449965 0.529026107,6.10974466 L5.28947466,0.822730929 C5.80656773,0.24844089 6.69056407,0.201403251 7.27294172,0.725778451 C7.85128727,1.24652311 7.89511416,2.14069683 7.38384913,2.70851417 L4.42018198,6 L15.3710785,6 C16.1449079,6 16.7722205,6.62546298 16.7722205,7.40912942 C16.7722205,8.18737011 16.1352102,8.81825884 15.3710785,8.81825884 L4.35837697,8.81825884 L7.4681553,11.9280372 C8.01459574,12.4744776 8.01530412,13.3597242 7.46116827,13.9138601 C6.910869,14.4641593 6.015627,14.4611287 5.47534537,13.9208471 L0.44471993,8.89022167 C0.13552503,8.58102677 0.0010564986,8.16335671 0.0429651214,7.75857536 Z" id="Combined-Shape"></path>
            </g>
        </g>
    </g>
</svg>