<?xml version="1.0" encoding="UTF-8"?>
<svg width="15px" height="15px" viewBox="0 0 15 15" version="1.1" xmlns="http://www.w3.org/2000/svg" xmlns:xlink="http://www.w3.org/1999/xlink">
    <!-- Generator: Sketch 43.2 (39069) - http://www.bohemiancoding.com/sketch -->
    <title>button/close</title>
    <desc>Created with Sketch.</desc>
    <defs></defs>
    <g id="Symbols" stroke="none" stroke-width="1" fill="none" fill-rule="evenodd">
        <g id="Button/White/Close" stroke="#FFFFFF" fill="#FFFFFF">
            <g id="button/close" transform="translate(1.000000, 1.000000)">
                <path d="M12.9478825,1.28135738 C13.2356892,0.993550691 13.2411441,0.513222042 12.9482509,0.220328823 C12.6533157,-0.0746063932 12.180319,-0.0723994641 11.8872223,0.220697208 L6.58428985,5.52362968 L1.28135738,0.220697208 C0.993550691,-0.0671094804 0.513222042,-0.0725643955 0.220328823,0.220328823 C-0.0746063932,0.51526404 -0.0723994641,0.988260708 0.220697208,1.28135738 L5.52362968,6.58428985 L0.220697208,11.8872223 C-0.0671094804,12.175029 -0.0725643955,12.6553577 0.220328823,12.9482509 C0.51526404,13.2431861 0.988260708,13.2409792 1.28135738,12.9478825 L6.58428985,7.64495003 L11.8872223,12.9478825 C12.175029,13.2356892 12.6553577,13.2411441 12.9482509,12.9482509 C13.2431861,12.6533157 13.2409792,12.180319 12.9478825,11.8872223 L7.64495003,6.58428985 L12.9478825,1.28135738 Z" id="Cancel"></path>
            </g>
        </g>
    </g>
</svg>