<?xml version="1.0" encoding="UTF-8"?>
<svg width="26px" height="26px" viewBox="0 0 26 26" version="1.1" xmlns="http://www.w3.org/2000/svg" xmlns:xlink="http://www.w3.org/1999/xlink">
    <!-- Generator: Sketch 43.2 (39069) - http://www.bohemiancoding.com/sketch -->
    <title>icon/menu/directions</title>
    <desc>Created with Sketch.</desc>
    <defs></defs>
    <g id="Symbols" stroke="none" stroke-width="1" fill="none" fill-rule="evenodd">
        <g id="Icon/White/Directions" transform="translate(-9.000000, -9.000000)">
            <g id="icon/menu/directions">
                <path d="M21.8635294,43.4729412 C33.798078,43.4729412 43.4729412,33.798078 43.4729412,21.8635294 C43.4729412,17.5905903 42.2327568,13.6073117 40.0927051,10.2540107 C36.2554774,4.24136204 29.5251388,0.254117647 21.8635294,0.254117647 C9.92898084,0.254117647 0.254117647,9.92898084 0.254117647,21.8635294 C0.254117647,33.798078 9.92898084,43.4729412 21.8635294,43.4729412 Z" id="Oval-9"></path>
                <path d="M20.5925298,9.77594308 C21.3698541,8.99861878 22.6391933,9.00766627 23.4074702,9.77594308 L34.2240569,20.5925298 C35.0013812,21.3698541 34.9923337,22.6391933 34.2240569,23.4074702 L23.4074702,34.2240569 C22.6301459,35.0013812 21.3608067,34.9923337 20.5925298,34.2240569 L9.77594308,23.4074702 C8.99861878,22.6301459 9.00766627,21.3608067 9.77594308,20.5925298 L20.5925298,9.77594308 Z M23.5172414,22.4080884 L23.5172414,25.0344828 L28.0440265,21.477723 C28.4791597,21.1358327 28.4767746,20.5864313 28.0440265,20.2464149 L23.5172414,16.6896552 L23.5172414,19.4327572 C23.5066113,19.4324934 23.495949,19.4323607 23.4852558,19.4323607 L18.7216408,19.4323607 C18.0219064,19.4323607 17.4482759,20.0051756 17.4482759,20.7117785 L17.4482759,21.0247473 L17.4482759,26.5517241 L20.3448276,26.5517241 L20.3448276,22.4084881 L23.4852558,22.4084881 C23.4959476,22.4084881 23.50661,22.4083543 23.5172414,22.4080884 Z" id="Combined-Shape" fill="#FFFFFF"></path>
            </g>
        </g>
    </g>
</svg>