<?xml version="1.0" encoding="UTF-8"?>
<svg width="23px" height="24px" viewBox="0 0 23 24" version="1.1" xmlns="http://www.w3.org/2000/svg" xmlns:xlink="http://www.w3.org/1999/xlink">
    <!-- Generator: Sketch 43.2 (39069) - http://www.bohemiancoding.com/sketch -->
    <title>icon/menu/google-signin</title>
    <desc>Created with Sketch.</desc>
    <defs></defs>
    <g id="Symbols" stroke="none" stroke-width="1" fill="none" fill-rule="evenodd">
        <g id="Icon/White/Google" transform="translate(-11.000000, -10.000000)">
            <g id="icon/menu/google-signin">
                <path d="M21.6094118,43.2188235 C33.5439603,43.2188235 43.2188235,33.5439603 43.2188235,21.6094118 C43.2188235,17.3364726 41.9786391,13.353194 39.8385874,9.99989309 C36.0013598,3.98724439 29.2710212,0 21.6094118,0 C9.67486319,0 0,9.67486319 0,21.6094118 C0,33.5439603 9.67486319,43.2188235 21.6094118,43.2188235 Z" id="Oval-9"></path>
                <path d="M23.2105029,21.2792969 L33.1044922,21.2792969 L33.1044922,22.0263672 C33.1044922,23.7255944 32.9042989,25.2294856 32.5039062,26.5380859 C32.1132793,27.7490295 31.4541062,28.8818307 30.5263672,29.9365234 C28.4267473,32.2998165 25.7558756,33.4814453 22.5136719,33.4814453 C19.3495936,33.4814453 16.6396597,32.3388786 14.3837891,30.0537109 C12.1279184,27.7587776 11,25.0048989 11,21.7919922 C11,18.5107258 12.1474495,15.7275505 14.4423828,13.4423828 C16.7373162,11.1474495 19.530257,10 22.8212891,10 C24.588876,10 26.2392501,10.3613245 27.7724609,11.0839844 C29.237312,11.8066442 30.060678,12.5437182 31.4767007,14.1648201 L29.130803,16.0555353 C27.275325,13.5848198 25.5459118,13.2226562 22.8798828,13.2226562 C20.4872927,13.2226562 18.4804769,14.0478433 16.859375,15.6982422 C15.2382731,17.319344 14.4277344,19.3505737 14.4277344,21.7919922 C14.4277344,24.311536 15.3310457,26.3867106 17.1376953,28.0175781 C18.8271569,29.5312576 20.6581933,30.2880859 22.6308594,30.2880859 C24.3105553,30.2880859 25.8193292,29.7216854 27.1572266,28.5888672 C28.4951239,27.4462833 29.4756011,25.6429379 29.6318518,24.0511331 L23.2105029,24.0511331 L23.2105029,21.2792969 Z" id="G" fill="#FFFFFF"></path>
            </g>
        </g>
    </g>
</svg>