<?xml version="1.0" encoding="UTF-8"?>
<svg width="20px" height="20px" viewBox="0 0 20 20" version="1.1" xmlns="http://www.w3.org/2000/svg" xmlns:xlink="http://www.w3.org/1999/xlink">
    <!-- Generator: Sketch 43.2 (39069) - http://www.bohemiancoding.com/sketch -->
    <title>icon/menu/leave</title>
    <desc>Created with Sketch.</desc>
    <defs></defs>
    <g id="Symbols" stroke="none" stroke-width="1" fill="none" fill-rule="evenodd">
        <g id="Icon/White/Leave" transform="translate(-12.000000, -12.000000)">
            <g id="icon/menu/leave">
                <path d="M21.8635294,43.4729412 C33.798078,43.4729412 43.4729412,33.798078 43.4729412,21.8635294 C43.4729412,17.5905903 42.2327568,13.6073117 40.0927051,10.2540107 C36.2554774,4.24136204 29.5251388,0.254117647 21.8635294,0.254117647 C9.92898084,0.254117647 0.254117647,9.92898084 0.254117647,21.8635294 C0.254117647,33.798078 9.92898084,43.4729412 21.8635294,43.4729412 Z" id="Oval-9"></path>
                <path d="M27.7903911,31.6389452 L29.6484818,31.6389452 C30.7349893,31.6389452 31.6389452,30.7477844 31.6389452,29.6484818 L31.6389452,14.3515182 C31.6389452,13.2650107 30.7477844,12.3610548 29.6484818,12.3610548 L14.3515182,12.3610548 C13.2650107,12.3610548 12.3610548,13.2522156 12.3610548,14.3515182 L12.3610548,29.6484818 C12.3610548,30.7349893 13.2522156,31.6389452 14.3515182,31.6389452 L16.2078264,31.6389452 C16.0301798,31.2546756 15.9310345,30.8258813 15.9310345,30.3728117 L15.9310345,18.1789125 C15.9310345,16.5184691 17.2763821,15.1724138 18.9314227,15.1724138 L25.0685773,15.1724138 C26.725646,15.1724138 28.0689655,16.5112104 28.0689655,18.1789125 L28.0689655,30.3728117 C28.0689655,30.8251385 27.9691286,31.2541349 27.7903911,31.6389452 Z" id="Combined-Shape" fill="#FFFFFF"></path>
                <path d="M22.8649829,20.9499986 C22.8543528,20.9497348 22.8436905,20.9496021 22.8329973,20.9496021 L18.0693823,20.9496021 C17.3696479,20.9496021 16.7960174,21.522417 16.7960174,22.2290199 L16.7960174,22.6463117 C16.7960174,23.3519022 17.3661222,23.9257294 18.0693823,23.9257294 L22.8329973,23.9257294 C22.8436891,23.9257294 22.8543515,23.9255957 22.8649829,23.9253298 L22.8649829,26.5517241 L27.391768,22.9949644 C27.8269012,22.6530741 27.8245161,22.1036726 27.391768,21.7636563 L22.8649829,18.2068966 L22.8649829,20.9499986 Z" id="Combined-Shape" fill="#FFFFFF" transform="translate(22.256621, 22.379310) rotate(180.000000) translate(-22.256621, -22.379310) "></path>
            </g>
        </g>
    </g>
</svg>