<?xml version="1.0" encoding="UTF-8"?>
<svg width="27px" height="28px" viewBox="0 0 27 28" version="1.1" xmlns="http://www.w3.org/2000/svg" xmlns:xlink="http://www.w3.org/1999/xlink">
    <!-- Generator: Sketch 43.2 (39069) - http://www.bohemiancoding.com/sketch -->
    <title>icon/menu/magic-link</title>
    <desc>Created with Sketch.</desc>
    <defs></defs>
    <g id="Symbols" stroke="none" stroke-width="1" fill="none" fill-rule="evenodd">
        <g id="Icon/White/Magic_Link" transform="translate(-6.000000, -4.000000)">
            <g id="icon/menu/magic-link">
                <path d="M21.6094118,43.2188235 C33.5439603,43.2188235 43.2188235,33.5439603 43.2188235,21.6094118 C43.2188235,17.3364726 41.9786391,13.353194 39.8385874,9.99989309 C36.0013598,3.98724439 29.2710212,0 21.6094118,0 C9.67486319,0 0,9.67486319 0,21.6094118 C0,33.5439603 9.67486319,43.2188235 21.6094118,43.2188235 Z" id="Oval-9"></path>
                <path d="M13.6666667,18 L14,18 L14,19 L13.6666667,19 L10.3333333,19 L10,19 L10,18 L10.3333333,18 L13.6666667,18 Z M12.4050434,9.63350982 L12.8760187,9.97321872 L12.1519107,10.7299479 L11.6809353,10.390239 L9.57466952,8.87101461 L9.10369416,8.5313057 L9.82780219,7.77457653 L10.2987776,8.11428543 L12.4050434,9.63350982 Z M17.1450186,9.56384819 L17.3416408,9.92428753 L16.6862335,10.3568147 L16.4896113,9.9963754 L14.1966222,5.79296654 L14,5.4325272 L14.6554073,5 L14.8520295,5.36043934 L17.1450186,9.56384819 Z M11.625,14 L12,14 L12,15 L11.625,15 L6.375,15 L6,15 L6,14 L6.375,14 L11.625,14 Z M17.4836335,13.1259854 C18.3106688,12.4562654 19.5227242,12.5821837 20.1916697,13.4082625 L32.2613916,28.3131278 C32.9299633,29.1387451 32.8072691,30.3462864 31.9744678,31.0206756 C31.1474324,31.6903956 29.935377,31.5644774 29.2664316,30.7383986 L17.1967097,15.8335333 C16.5281379,15.0079159 16.6508322,13.8003747 17.4836335,13.1259854 Z M22,9.625 L22,10 L21,10 L21,9.625 L21,4.375 L21,4 L22,4 L22,4.375 L22,9.625 Z" id="Combined-Shape" fill="#FFFFFF"></path>
            </g>
        </g>
    </g>
</svg>