<?xml version="1.0" encoding="UTF-8"?>
<svg width="24px" height="21px" viewBox="0 0 24 21" version="1.1" xmlns="http://www.w3.org/2000/svg" xmlns:xlink="http://www.w3.org/1999/xlink">
    <!-- Generator: Sketch 43.2 (39069) - http://www.bohemiancoding.com/sketch -->
    <title>icon/menu/people</title>
    <desc>Created with Sketch.</desc>
    <defs></defs>
    <g id="Symbols" stroke="none" stroke-width="1" fill="none" fill-rule="evenodd">
        <g id="Icon/White/People" transform="translate(-10.000000, -11.000000)">
            <g id="icon/menu/people">
                <path d="M21.8635294,43.4729412 C33.798078,43.4729412 43.4729412,33.798078 43.4729412,21.8635294 C43.4729412,17.5905903 42.2327568,13.6073117 40.0927051,10.2540107 C36.2554774,4.24136204 29.5251388,0.254117647 21.8635294,0.254117647 C9.92898084,0.254117647 0.254117647,9.92898084 0.254117647,21.8635294 C0.254117647,33.798078 9.92898084,43.4729412 21.8635294,43.4729412 Z" id="Oval-9"></path>
                <path d="M20.5736574,29.4444541 C21.6062939,26.8888606 24.1008206,25.0868154 27.0140901,25.0868154 C29.8466125,25.0868154 32.283283,26.7903504 33.3653111,29.2337129 C31.692448,30.8921793 29.39499,31.9157747 26.8596784,31.9157747 C24.4335704,31.9157747 22.2252673,30.9784591 20.5736574,29.4444541 Z M27.0140901,23.8451865 C24.71155,23.8451865 22.8449725,21.9690367 22.8449725,19.6546887 C22.8449725,17.3403407 24.71155,15.464191 27.0140901,15.464191 C29.3166302,15.464191 31.1832078,17.3403407 31.1832078,19.6546887 C31.1832078,21.9690367 29.3166302,23.8451865 27.0140901,23.8451865 Z" id="Combined-Shape" fill="#FFFFFF"></path>
                <path d="M10.8199628,25.3595734 C11.8525993,22.8039799 14.347126,21.0019348 17.2603955,21.0019348 C20.0929179,21.0019348 22.5295884,22.7054697 23.6116165,25.1488322 C21.9387534,26.8072987 19.6412954,27.8308941 17.1059838,27.8308941 C14.6798758,27.8308941 12.4715727,26.8935785 10.8199628,25.3595734 Z M17.2603955,19.7603058 C14.9578554,19.7603058 13.0912779,17.8841561 13.0912779,15.5698081 C13.0912779,13.2554601 14.9578554,11.3793103 17.2603955,11.3793103 C19.5629356,11.3793103 21.4295132,13.2554601 21.4295132,15.5698081 C21.4295132,17.8841561 19.5629356,19.7603058 17.2603955,19.7603058 Z" id="Combined-Shape" fill="#FFFFFF"></path>
            </g>
        </g>
    </g>
</svg>