<?xml version="1.0" encoding="UTF-8"?>
<svg width="25px" height="25px" viewBox="0 0 25 25" version="1.1" xmlns="http://www.w3.org/2000/svg" xmlns:xlink="http://www.w3.org/1999/xlink">
    <!-- Generator: Sketch 43.2 (39069) - http://www.bohemiancoding.com/sketch -->
    <title>icon/menu/settings-privacy</title>
    <desc>Created with Sketch.</desc>
    <defs></defs>
    <g id="Symbols" stroke="none" stroke-width="1" fill="none" fill-rule="evenodd">
        <g id="Icon/White/Settings" transform="translate(-10.000000, -9.000000)">
            <g id="icon/menu/settings-privacy">
                <path d="M21.8635294,43.4729412 C33.798078,43.4729412 43.4729412,33.798078 43.4729412,21.8635294 C43.4729412,17.5905903 42.2327568,13.6073117 40.0927051,10.2540107 C36.2554774,4.24136204 29.5251388,0.254117647 21.8635294,0.254117647 C9.92898084,0.254117647 0.254117647,9.92898084 0.254117647,21.8635294 C0.254117647,33.798078 9.92898084,43.4729412 21.8635294,43.4729412 Z" id="Oval-9"></path>
                <path d="M25.7763703,14.4137931 C27.446125,15.2022332 28.7977668,16.553875 29.5862069,18.2236297 L29.5862069,18.2068966 L34.137931,19.0864475 L34.137931,24.2612096 L29.5862069,25.0344828 L29.5862069,25.0177496 C28.7977668,26.6875043 27.446125,28.0391462 25.7763703,28.8275862 L25.7931034,28.8275862 L24.9135525,33.3793103 L19.7387904,33.3793103 L18.9655172,28.8275862 L18.9822504,28.8275862 C17.3124957,28.0391462 15.9608538,26.6875043 15.1724138,25.0177496 L15.1724138,25.0344828 L10.6206897,24.1549319 L10.6206897,18.9801697 L15.1724138,18.2068966 L15.1724138,18.2236297 C15.9608538,16.553875 17.3124957,15.2022332 18.9822504,14.4137931 L18.9655172,14.4137931 L19.8450681,9.86206897 L25.0198303,9.86206897 L25.7931034,14.4137931 L25.7763703,14.4137931 Z M22.3793103,25.7931034 C24.6836709,25.7931034 26.5517241,23.9250502 26.5517241,21.6206897 C26.5517241,19.3163291 24.6836709,17.4482759 22.3793103,17.4482759 C20.0749498,17.4482759 18.2068966,19.3163291 18.2068966,21.6206897 C18.2068966,23.9250502 20.0749498,25.7931034 22.3793103,25.7931034 Z" id="Combined-Shape" fill="#FFFFFF"></path>
            </g>
        </g>
    </g>
</svg>