<?xml version="1.0" encoding="UTF-8"?>
<svg width="64px" height="79px" viewBox="0 0 64 79" version="1.1" xmlns="http://www.w3.org/2000/svg" xmlns:xlink="http://www.w3.org/1999/xlink">
    <!-- Generator: Sketch 43.2 (39069) - http://www.bohemiancoding.com/sketch -->
    <title>Pin/You</title>
    <desc>Created with Sketch.</desc>
    <defs></defs>
    <g id="Symbols" stroke="none" stroke-width="1" fill="none" fill-rule="evenodd">
        <g id="Pin/You">
            <g id="You">
                <g id="Pin/Color/black">
                    <g id="Pin_Default">
                        <path d="M20.9849027,62.0536965 L32,79 L43.0150973,62.0536965 C55.2614722,57.5639107 64,45.8024516 64,32 C64,14.326888 49.673112,0 32,0 C14.326888,0 0,14.326888 0,32 C0,45.8024516 8.73852782,57.5639107 20.9849027,62.0536965 Z" id="Pin" fill="#4A4A4A"></path>
                        <circle id="Oval-6" fill="#FFFFFF" cx="32" cy="32" r="30"></circle>
                    </g>
                </g>
                <path d="M19.6953125,38 L19.6953125,32.5771484 L14.9755859,25.1152344 L18.0253906,25.1152344 L21.0576172,30.2128906 L24.0283203,25.1152344 L27.0253906,25.1152344 L22.2880859,32.5947266 L22.2880859,38 L19.6953125,38 Z M27.7285156,33.2011719 C27.7285156,32.3808553 27.930662,31.5869179 28.3349609,30.8193359 C28.7392598,30.051754 29.312008,29.4658223 30.0532227,29.0615234 C30.7944373,28.6572245 31.6220657,28.4550781 32.5361328,28.4550781 C33.9482492,28.4550781 35.1054642,28.9135696 36.0078125,29.8305664 C36.9101608,30.7475632 37.3613281,31.906243 37.3613281,33.3066406 C37.3613281,34.7187571 36.9057663,35.8891555 35.9946289,36.8178711 C35.0834915,37.7465867 33.9365304,38.2109375 32.5537109,38.2109375 C31.6982379,38.2109375 30.8823281,38.0175801 30.105957,37.6308594 C29.329586,37.2441387 28.7392598,36.6772498 28.3349609,35.9301758 C27.930662,35.1831017 27.7285156,34.2734429 27.7285156,33.2011719 Z M30.2597656,33.3330078 C30.2597656,34.2587937 30.47949,34.967771 30.9189453,35.4599609 C31.3584006,35.9521509 31.9003874,36.1982422 32.5449219,36.1982422 C33.1894563,36.1982422 33.7299783,35.9521509 34.1665039,35.4599609 C34.6030295,34.967771 34.8212891,34.2529344 34.8212891,33.3154297 C34.8212891,32.4013626 34.6030295,31.6982446 34.1665039,31.2060547 C33.7299783,30.7138647 33.1894563,30.4677734 32.5449219,30.4677734 C31.9003874,30.4677734 31.3584006,30.7138647 30.9189453,31.2060547 C30.47949,31.6982446 30.2597656,32.4072219 30.2597656,33.3330078 Z M45.4384766,38 L45.4384766,36.6025391 C45.0986311,37.1005884 44.6518582,37.4931626 44.0981445,37.7802734 C43.5444308,38.0673842 42.959964,38.2109375 42.3447266,38.2109375 C41.7177703,38.2109375 41.1552759,38.0732436 40.6572266,37.7978516 C40.1591772,37.5224596 39.7988292,37.1357447 39.5761719,36.6376953 C39.3535145,36.1396459 39.2421875,35.4511763 39.2421875,34.5722656 L39.2421875,28.6660156 L41.7119141,28.6660156 L41.7119141,32.9550781 C41.7119141,34.2675847 41.7573238,35.0717759 41.8481445,35.3676758 C41.9389653,35.6635757 42.104491,35.8979484 42.3447266,36.0708008 C42.5849621,36.2436532 42.8896466,36.3300781 43.2587891,36.3300781 C43.6806662,36.3300781 44.0585921,36.2143566 44.3925781,35.9829102 C44.7265642,35.7514637 44.9550775,35.4643572 45.078125,35.121582 C45.2011725,34.7788069 45.2626953,33.9394598 45.2626953,32.6035156 L45.2626953,28.6660156 L47.7324219,28.6660156 L47.7324219,38 L45.4384766,38 Z" fill="#4A4A4A"></path>
            </g>
        </g>
    </g>
</svg>
