<?xml version="1.0" encoding="UTF-8"?>
<svg width="64px" height="79px" viewBox="0 0 64 79" version="1.1" xmlns="http://www.w3.org/2000/svg" xmlns:xlink="http://www.w3.org/1999/xlink">
    <!-- Generator: Sketch 43.2 (39069) - http://www.bohemiancoding.com/sketch -->
    <title>User_Pin (no picture)</title>
    <desc>Created with Sketch.</desc>
    <defs></defs>
    <g id="Symbols" stroke="none" stroke-width="1" fill="none" fill-rule="evenodd">
        <g id="User_Pin-(no-picture)">
            <g id="Pin" fill="#000000">
                <path d="M20.9849027,62.0536965 C8.73852782,57.5639107 0,45.8024516 0,32 C0,14.326888 14.326888,0 32,0 C49.673112,0 64,14.326888 64,32 C64,45.8024516 55.2614722,57.5639107 43.0150973,62.0536965 L32,79 L20.9849027,62.0536965 Z M32,62 C48.5685425,62 62,48.5685425 62,32 C62,15.4314575 48.5685425,2 32,2 C15.4314575,2 2,15.4314575 2,32 C2,48.5685425 15.4314575,62 32,62 Z" id="Combined-Shape"></path>
            </g>
            <g id="Initials" transform="translate(2.000000, 2.000000)" fill="#FFFFFF">
                <circle id="Oval-6" cx="30" cy="30" r="30"></circle>
            </g>
        </g>
    </g>
</svg>